<?xml version="1.0" encoding="UTF-8" standalone="no"?>
<!DOCTYPE svg PUBLIC "-//W3C//DTD SVG 1.1//EN"
 "http://www.w3.org/Graphics/SVG/1.1/DTD/svg11.dtd">
<!-- Generated by graphviz version 2.43.0 (0)
 -->
<!-- Title: Entity Relationship Diagram created by erdantic Pages: 1 -->
<svg width="1373pt" height="443pt"
 viewBox="0.00 0.00 1373.00 443.00" xmlns="http://www.w3.org/2000/svg" xmlns:xlink="http://www.w3.org/1999/xlink">
<g id="graph0" class="graph" transform="scale(1 1) rotate(0) translate(4 439)">
<title>Entity Relationship Diagram created by erdantic</title>
<polygon fill="white" stroke="transparent" points="-4,4 -4,-439 1369,-439 1369,4 -4,4"/>
<text text-anchor="middle" x="682.5" y="-6.8" font-family="Times New Roman,Times,Liberation Serif,serif" font-size="9.00" fill="#a8a8a8">Created by erdantic v1.2.1 &lt;https://github.com/drivendataorg/erdantic&gt;</text>
<!-- aind_behavior_telekinesis.task_logic.ActionLookUpTableFactory -->
<g id="node1" class="node">
<title>aind_behavior_telekinesis.task_logic.ActionLookUpTableFactory</title>
<g id="a_node1"><a xlink:title="aind_behavior_telekinesis.task_logic.ActionLookUpTableFactory&#10;&#10;Factory for loading and configuring a look&#45;up table image used to map action inputs to output values&#10;">
<polygon fill="none" stroke="black" points="1190.5,-285 1190.5,-306 1359.5,-306 1359.5,-285 1190.5,-285"/>
<text text-anchor="start" x="1193.5" y="-292.8" font-family="Times New Roman,Times,Liberation Serif,serif" font-weight="bold" font-size="14.00">ActionLookUpTableFactory</text>
<polygon fill="none" stroke="black" points="1190.5,-264 1190.5,-285 1297.5,-285 1297.5,-264 1190.5,-264"/>
<text text-anchor="start" x="1232" y="-270.8" font-family="Times New Roman,Times,Liberation Serif,serif" font-size="14.00">path</text>
<polygon fill="none" stroke="black" points="1297.5,-264 1297.5,-285 1359.5,-285 1359.5,-264 1297.5,-264"/>
<text text-anchor="start" x="1321.5" y="-270.8" font-family="Times New Roman,Times,Liberation Serif,serif" font-size="14.00">str</text>
<polygon fill="none" stroke="black" points="1190.5,-243 1190.5,-264 1297.5,-264 1297.5,-243 1190.5,-243"/>
<text text-anchor="start" x="1228.5" y="-249.8" font-family="Times New Roman,Times,Liberation Serif,serif" font-size="14.00">offset</text>
<polygon fill="none" stroke="black" points="1297.5,-243 1297.5,-264 1359.5,-264 1359.5,-243 1297.5,-243"/>
<text text-anchor="start" x="1316" y="-249.8" font-family="Times New Roman,Times,Liberation Serif,serif" font-size="14.00">float</text>
<polygon fill="none" stroke="black" points="1190.5,-222 1190.5,-243 1297.5,-243 1297.5,-222 1190.5,-222"/>
<text text-anchor="start" x="1230" y="-228.8" font-family="Times New Roman,Times,Liberation Serif,serif" font-size="14.00">scale</text>
<polygon fill="none" stroke="black" points="1297.5,-222 1297.5,-243 1359.5,-243 1359.5,-222 1297.5,-222"/>
<text text-anchor="start" x="1316" y="-228.8" font-family="Times New Roman,Times,Liberation Serif,serif" font-size="14.00">float</text>
<polygon fill="none" stroke="black" points="1190.5,-201 1190.5,-222 1297.5,-222 1297.5,-201 1190.5,-201"/>
<text text-anchor="start" x="1209.5" y="-207.8" font-family="Times New Roman,Times,Liberation Serif,serif" font-size="14.00">action0_min</text>
<polygon fill="none" stroke="black" points="1297.5,-201 1297.5,-222 1359.5,-222 1359.5,-201 1297.5,-201"/>
<text text-anchor="start" x="1316" y="-207.8" font-family="Times New Roman,Times,Liberation Serif,serif" font-size="14.00">float</text>
<polygon fill="none" stroke="black" points="1190.5,-180 1190.5,-201 1297.5,-201 1297.5,-180 1190.5,-180"/>
<text text-anchor="start" x="1208.5" y="-186.8" font-family="Times New Roman,Times,Liberation Serif,serif" font-size="14.00">action0_max</text>
<polygon fill="none" stroke="black" points="1297.5,-180 1297.5,-201 1359.5,-201 1359.5,-180 1297.5,-180"/>
<text text-anchor="start" x="1316" y="-186.8" font-family="Times New Roman,Times,Liberation Serif,serif" font-size="14.00">float</text>
<polygon fill="none" stroke="black" points="1190.5,-159 1190.5,-180 1297.5,-180 1297.5,-159 1190.5,-159"/>
<text text-anchor="start" x="1209.5" y="-165.8" font-family="Times New Roman,Times,Liberation Serif,serif" font-size="14.00">action1_min</text>
<polygon fill="none" stroke="black" points="1297.5,-159 1297.5,-180 1359.5,-180 1359.5,-159 1297.5,-159"/>
<text text-anchor="start" x="1316" y="-165.8" font-family="Times New Roman,Times,Liberation Serif,serif" font-size="14.00">float</text>
<polygon fill="none" stroke="black" points="1190.5,-138 1190.5,-159 1297.5,-159 1297.5,-138 1190.5,-138"/>
<text text-anchor="start" x="1208.5" y="-144.8" font-family="Times New Roman,Times,Liberation Serif,serif" font-size="14.00">action1_max</text>
<polygon fill="none" stroke="black" points="1297.5,-138 1297.5,-159 1359.5,-159 1359.5,-138 1297.5,-138"/>
<text text-anchor="start" x="1316" y="-144.8" font-family="Times New Roman,Times,Liberation Serif,serif" font-size="14.00">float</text>
</a>
</g>
</g>
<!-- aind_behavior_telekinesis.task_logic.AindBehaviorTelekinesisTaskLogic -->
<g id="node2" class="node">
<title>aind_behavior_telekinesis.task_logic.AindBehaviorTelekinesisTaskLogic</title>
<g id="a_node2"><a xlink:title="aind_behavior_telekinesis.task_logic.AindBehaviorTelekinesisTaskLogic&#10;&#10;Task logic definition for the Telekinesis behavior task&#10;">
<polygon fill="none" stroke="black" points="0,-414 0,-435 276,-435 276,-414 0,-414"/>
<text text-anchor="start" x="35.5" y="-421.8" font-family="Times New Roman,Times,Liberation Serif,serif" font-weight="bold" font-size="14.00">AindBehaviorTelekinesisTaskLogic</text>
<polygon fill="none" stroke="black" points="0,-393 0,-414 95,-414 95,-393 0,-393"/>
<text text-anchor="start" x="32" y="-399.8" font-family="Times New Roman,Times,Liberation Serif,serif" font-size="14.00">name</text>
<polygon fill="none" stroke="black" points="95,-393 95,-414 276,-414 276,-393 95,-393"/>
<text text-anchor="start" x="116.5" y="-399.8" font-family="Times New Roman,Times,Liberation Serif,serif" font-size="14.00">Literal[&#39;AindTelekinesis&#39;]</text>
<polygon fill="none" stroke="black" points="0,-372 0,-393 95,-393 95,-372 0,-372"/>
<text text-anchor="start" x="17" y="-378.8" font-family="Times New Roman,Times,Liberation Serif,serif" font-size="14.00">description</text>
<polygon fill="none" stroke="black" points="95,-372 95,-393 276,-393 276,-372 95,-372"/>
<text text-anchor="start" x="178.5" y="-378.8" font-family="Times New Roman,Times,Liberation Serif,serif" font-size="14.00">str</text>
<polygon fill="none" stroke="black" points="0,-351 0,-372 95,-372 95,-351 0,-351"/>
<text text-anchor="start" x="3" y="-357.8" font-family="Times New Roman,Times,Liberation Serif,serif" font-size="14.00">task_parameters</text>
<polygon fill="none" stroke="black" points="95,-351 95,-372 276,-372 276,-351 95,-351"/>
<text text-anchor="start" x="98" y="-357.8" font-family="Times New Roman,Times,Liberation Serif,serif" font-size="14.00">AindTelekinesisTaskParameters</text>
<polygon fill="none" stroke="black" points="0,-330 0,-351 95,-351 95,-330 0,-330"/>
<text text-anchor="start" x="27.5" y="-336.8" font-family="Times New Roman,Times,Liberation Serif,serif" font-size="14.00">version</text>
<polygon fill="none" stroke="black" points="95,-330 95,-351 276,-351 276,-330 95,-330"/>
<text text-anchor="start" x="135.5" y="-336.8" font-family="Times New Roman,Times,Liberation Serif,serif" font-size="14.00">Literal[&#39;0.4.0&#45;rc4&#39;]</text>
<polygon fill="none" stroke="black" points="0,-309 0,-330 95,-330 95,-309 0,-309"/>
<text text-anchor="start" x="15" y="-315.8" font-family="Times New Roman,Times,Liberation Serif,serif" font-size="14.00">stage_name</text>
<polygon fill="none" stroke="black" points="95,-309 95,-330 276,-330 276,-309 95,-309"/>
<text text-anchor="start" x="150.5" y="-315.8" font-family="Times New Roman,Times,Liberation Serif,serif" font-size="14.00">Optional[str]</text>
</a>
</g>
</g>
<!-- aind_behavior_telekinesis.task_logic.AindTelekinesisTaskParameters -->
<g id="node3" class="node">
<title>aind_behavior_telekinesis.task_logic.AindTelekinesisTaskParameters</title>
<g id="a_node3"><a xlink:title="aind_behavior_telekinesis.task_logic.AindTelekinesisTaskParameters&#10;&#10;Task parameters for the Telekinesis task&#10;">
<polygon fill="none" stroke="black" points="384,-350 384,-371 694,-371 694,-350 384,-350"/>
<text text-anchor="start" x="445.5" y="-357.8" font-family="Times New Roman,Times,Liberation Serif,serif" font-weight="bold" font-size="14.00">AindTelekinesisTaskParameters</text>
<polygon fill="none" stroke="black" points="384,-329 384,-350 592,-350 592,-329 384,-329"/>
<text text-anchor="start" x="463.5" y="-335.8" font-family="Times New Roman,Times,Liberation Serif,serif" font-size="14.00">rng_seed</text>
<polygon fill="none" stroke="black" points="592,-329 592,-350 694,-350 694,-329 592,-329"/>
<text text-anchor="start" x="602" y="-335.8" font-family="Times New Roman,Times,Liberation Serif,serif" font-size="14.00">Optional[float]</text>
<polygon fill="none" stroke="black" points="384,-308 384,-329 592,-329 592,-308 384,-308"/>
<text text-anchor="start" x="387" y="-314.8" font-family="Times New Roman,Times,Liberation Serif,serif" font-size="14.00">aind_behavior_services_pkg_version</text>
<polygon fill="none" stroke="black" points="592,-308 592,-329 694,-329 694,-308 592,-308"/>
<text text-anchor="start" x="600.5" y="-314.8" font-family="Times New Roman,Times,Liberation Serif,serif" font-size="14.00">Literal[&#39;0.13.6&#39;]</text>
<polygon fill="none" stroke="black" points="384,-287 384,-308 592,-308 592,-287 384,-287"/>
<text text-anchor="start" x="453" y="-293.8" font-family="Times New Roman,Times,Liberation Serif,serif" font-size="14.00">environment</text>
<polygon fill="none" stroke="black" points="592,-287 592,-308 694,-308 694,-287 592,-287"/>
<text text-anchor="start" x="607" y="-293.8" font-family="Times New Roman,Times,Liberation Serif,serif" font-size="14.00">Environment</text>
<polygon fill="none" stroke="black" points="384,-266 384,-287 592,-287 592,-266 384,-266"/>
<text text-anchor="start" x="439.5" y="-272.8" font-family="Times New Roman,Times,Liberation Serif,serif" font-size="14.00">operation_control</text>
<polygon fill="none" stroke="black" points="592,-266 592,-287 694,-287 694,-266 592,-266"/>
<text text-anchor="start" x="595" y="-272.8" font-family="Times New Roman,Times,Liberation Serif,serif" font-size="14.00">OperationControl</text>
</a>
</g>
</g>
<!-- aind_behavior_telekinesis.task_logic.AindBehaviorTelekinesisTaskLogic&#45;&gt;aind_behavior_telekinesis.task_logic.AindTelekinesisTaskParameters -->
<g id="edge1" class="edge">
<title>aind_behavior_telekinesis.task_logic.AindBehaviorTelekinesisTaskLogic:e&#45;&gt;aind_behavior_telekinesis.task_logic.AindTelekinesisTaskParameters:w</title>
<path fill="none" stroke="black" d="M286.12,-361C321,-361 335.76,-361 368.67,-361"/>
<polyline fill="none" stroke="black" points="276,-361 281,-361 "/>
<polyline fill="none" stroke="black" points="281,-361 286,-361 "/>
<polyline fill="none" stroke="black" points="384,-361 379,-361 "/>
<polygon fill="black" stroke="black" points="378,-356 378,-366 376,-366 376,-356 378,-356"/>
<polyline fill="none" stroke="black" points="379,-361 374,-361 "/>
<polygon fill="black" stroke="black" points="373,-356 373,-366 371,-366 371,-356 373,-356"/>
<polyline fill="none" stroke="black" points="374,-361 369,-361 "/>
</g>
<!-- aind_behavior_telekinesis.task_logic.Environment -->
<g id="node4" class="node">
<title>aind_behavior_telekinesis.task_logic.Environment</title>
<g id="a_node4"><a xlink:title="aind_behavior_telekinesis.task_logic.Environment&#10;&#10;Defines the structure of the behavioral environment as a sequence of blocks&#10;">
<polygon fill="none" stroke="black" points="838,-336 838,-357 1041,-357 1041,-336 838,-336"/>
<text text-anchor="start" x="900.5" y="-343.8" font-family="Times New Roman,Times,Liberation Serif,serif" font-weight="bold" font-size="14.00">Environment</text>
<polygon fill="none" stroke="black" points="838,-315 838,-336 928,-336 928,-315 838,-315"/>
<text text-anchor="start" x="841" y="-321.8" font-family="Times New Roman,Times,Liberation Serif,serif" font-size="14.00">block_statistics</text>
<polygon fill="none" stroke="black" points="928,-315 928,-336 1041,-336 1041,-315 928,-315"/>
<text text-anchor="start" x="931" y="-321.8" font-family="Times New Roman,Times,Liberation Serif,serif" font-size="14.00">list[BlockStatistics]</text>
<polygon fill="none" stroke="black" points="838,-294 838,-315 928,-315 928,-294 838,-294"/>
<text text-anchor="start" x="864" y="-300.8" font-family="Times New Roman,Times,Liberation Serif,serif" font-size="14.00">shuffle</text>
<polygon fill="none" stroke="black" points="928,-294 928,-315 1041,-315 1041,-294 928,-294"/>
<text text-anchor="start" x="972" y="-300.8" font-family="Times New Roman,Times,Liberation Serif,serif" font-size="14.00">bool</text>
<polygon fill="none" stroke="black" points="838,-273 838,-294 928,-294 928,-273 838,-273"/>
<text text-anchor="start" x="848" y="-279.8" font-family="Times New Roman,Times,Liberation Serif,serif" font-size="14.00">repeat_count</text>
<polygon fill="none" stroke="black" points="928,-273 928,-294 1041,-294 1041,-273 928,-273"/>
<text text-anchor="start" x="949" y="-279.8" font-family="Times New Roman,Times,Liberation Serif,serif" font-size="14.00">Optional[int]</text>
</a>
</g>
</g>
<!-- aind_behavior_telekinesis.task_logic.AindTelekinesisTaskParameters&#45;&gt;aind_behavior_telekinesis.task_logic.Environment -->
<g id="edge2" class="edge">
<title>aind_behavior_telekinesis.task_logic.AindTelekinesisTaskParameters:e&#45;&gt;aind_behavior_telekinesis.task_logic.Environment:w</title>
<path fill="none" stroke="black" d="M704.18,-297.4C757.48,-301.74 771.07,-339.75 821.99,-346.1"/>
<polyline fill="none" stroke="black" points="694,-297 699,-297.2 "/>
<polyline fill="none" stroke="black" points="699,-297.2 703.99,-297.4 "/>
<polyline fill="none" stroke="black" points="837,-347 832.01,-346.7 "/>
<polygon fill="black" stroke="black" points="831.31,-341.65 830.71,-351.63 828.72,-351.51 829.31,-341.53 831.31,-341.65"/>
<polyline fill="none" stroke="black" points="832.01,-346.7 827.02,-346.4 "/>
<polygon fill="black" stroke="black" points="826.32,-341.35 825.72,-351.33 823.72,-351.21 824.32,-341.23 826.32,-341.35"/>
<polyline fill="none" stroke="black" points="827.02,-346.4 822.03,-346.1 "/>
</g>
<!-- aind_behavior_telekinesis.task_logic.OperationControl -->
<g id="node5" class="node">
<title>aind_behavior_telekinesis.task_logic.OperationControl</title>
<g id="a_node5"><a xlink:title="aind_behavior_telekinesis.task_logic.OperationControl&#10;&#10;Top&#45;level operational settings including LUT registry and spout control&#10;">
<polygon fill="none" stroke="black" points="802,-215 802,-236 1076,-236 1076,-215 802,-215"/>
<text text-anchor="start" x="886" y="-222.8" font-family="Times New Roman,Times,Liberation Serif,serif" font-weight="bold" font-size="14.00">OperationControl</text>
<polygon fill="none" stroke="black" points="802,-194 802,-215 868,-215 868,-194 802,-194"/>
<text text-anchor="start" x="805" y="-200.8" font-family="Times New Roman,Times,Liberation Serif,serif" font-size="14.00">action_luts</text>
<polygon fill="none" stroke="black" points="868,-194 868,-215 1076,-215 1076,-194 868,-194"/>
<text text-anchor="start" x="871" y="-200.8" font-family="Times New Roman,Times,Liberation Serif,serif" font-size="14.00">dict[str, ActionLookUpTableFactory]</text>
<polygon fill="none" stroke="black" points="802,-173 802,-194 868,-194 868,-173 802,-173"/>
<text text-anchor="start" x="820" y="-179.8" font-family="Times New Roman,Times,Liberation Serif,serif" font-size="14.00">spout</text>
<polygon fill="none" stroke="black" points="868,-173 868,-194 1076,-194 1076,-173 868,-173"/>
<text text-anchor="start" x="908.5" y="-179.8" font-family="Times New Roman,Times,Liberation Serif,serif" font-size="14.00">SpoutOperationControl</text>
</a>
</g>
</g>
<!-- aind_behavior_telekinesis.task_logic.AindTelekinesisTaskParameters&#45;&gt;aind_behavior_telekinesis.task_logic.OperationControl -->
<g id="edge3" class="edge">
<title>aind_behavior_telekinesis.task_logic.AindTelekinesisTaskParameters:e&#45;&gt;aind_behavior_telekinesis.task_logic.OperationControl:w</title>
<path fill="none" stroke="black" d="M704.17,-275.33C742.53,-270.07 751.04,-235.35 786.83,-227.55"/>
<polyline fill="none" stroke="black" points="694,-276 698.99,-275.67 "/>
<polyline fill="none" stroke="black" points="698.99,-275.67 703.98,-275.34 "/>
<polyline fill="none" stroke="black" points="802,-226 797.03,-226.51 "/>
<polygon fill="black" stroke="black" points="795.52,-221.64 796.54,-231.59 794.55,-231.79 793.53,-221.84 795.52,-221.64"/>
<polyline fill="none" stroke="black" points="797.03,-226.51 792.05,-227.02 "/>
<polygon fill="black" stroke="black" points="790.55,-222.15 791.57,-232.09 789.58,-232.3 788.56,-222.35 790.55,-222.15"/>
<polyline fill="none" stroke="black" points="792.05,-227.02 787.08,-227.53 "/>
</g>
<!-- aind_behavior_telekinesis.task_logic.OperationControl&#45;&gt;aind_behavior_telekinesis.task_logic.ActionLookUpTableFactory -->
<g id="edge4" class="edge">
<title>aind_behavior_telekinesis.task_logic.OperationControl:e&#45;&gt;aind_behavior_telekinesis.task_logic.ActionLookUpTableFactory:w</title>
<path fill="none" stroke="black" d="M1086.28,-204.85C1134.47,-213.28 1129.74,-281.58 1174.35,-294.05"/>
<polyline fill="none" stroke="black" points="1076,-204 1080.98,-204.41 "/>
<polyline fill="none" stroke="black" points="1080.98,-204.41 1085.97,-204.83 "/>
<polygon fill="black" stroke="black" points="1179.58,-294.72 1188.93,-300.46 1184.54,-295.36 1189.5,-296 1189.5,-296 1189.5,-296 1184.54,-295.36 1190.07,-291.54 1179.58,-294.72 1179.58,-294.72"/>
<polyline fill="none" stroke="black" points="1179.58,-294.72 1174.62,-294.08 "/>
</g>
<!-- aind_behavior_telekinesis.task_logic.SpoutOperationControl -->
<g id="node6" class="node">
<title>aind_behavior_telekinesis.task_logic.SpoutOperationControl</title>
<g id="a_node6"><a xlink:title="aind_behavior_telekinesis.task_logic.SpoutOperationControl&#10;&#10;Control settings for the reward spout&#10;">
<polygon fill="none" stroke="black" points="1184.5,-81 1184.5,-102 1365.5,-102 1365.5,-81 1184.5,-81"/>
<text text-anchor="start" x="1205.5" y="-88.8" font-family="Times New Roman,Times,Liberation Serif,serif" font-weight="bold" font-size="14.00">SpoutOperationControl</text>
<polygon fill="none" stroke="black" points="1184.5,-60 1184.5,-81 1334.5,-81 1334.5,-60 1184.5,-60"/>
<text text-anchor="start" x="1188.5" y="-66.8" font-family="Times New Roman,Times,Liberation Serif,serif" font-size="14.00">default_retracted_position</text>
<polygon fill="none" stroke="black" points="1334.5,-60 1334.5,-81 1365.5,-81 1365.5,-60 1334.5,-60"/>
<text text-anchor="start" x="1337.5" y="-66.8" font-family="Times New Roman,Times,Liberation Serif,serif" font-size="14.00">float</text>
<polygon fill="none" stroke="black" points="1184.5,-39 1184.5,-60 1334.5,-60 1334.5,-39 1184.5,-39"/>
<text text-anchor="start" x="1187.5" y="-45.8" font-family="Times New Roman,Times,Liberation Serif,serif" font-size="14.00">default_extended_position</text>
<polygon fill="none" stroke="black" points="1334.5,-39 1334.5,-60 1365.5,-60 1365.5,-39 1334.5,-39"/>
<text text-anchor="start" x="1337.5" y="-45.8" font-family="Times New Roman,Times,Liberation Serif,serif" font-size="14.00">float</text>
<polygon fill="none" stroke="black" points="1184.5,-18 1184.5,-39 1334.5,-39 1334.5,-18 1184.5,-18"/>
<text text-anchor="start" x="1238" y="-24.8" font-family="Times New Roman,Times,Liberation Serif,serif" font-size="14.00">enabled</text>
<polygon fill="none" stroke="black" points="1334.5,-18 1334.5,-39 1365.5,-39 1365.5,-18 1334.5,-18"/>
<text text-anchor="start" x="1337.5" y="-24.8" font-family="Times New Roman,Times,Liberation Serif,serif" font-size="14.00">bool</text>
</a>
</g>
</g>
<!-- aind_behavior_telekinesis.task_logic.OperationControl&#45;&gt;aind_behavior_telekinesis.task_logic.SpoutOperationControl -->
<g id="edge5" class="edge">
<title>aind_behavior_telekinesis.task_logic.OperationControl:e&#45;&gt;aind_behavior_telekinesis.task_logic.SpoutOperationControl:w</title>
<path fill="none" stroke="black" d="M1086.24,-182.1C1132.13,-173.55 1126.65,-106.78 1168.87,-94.08"/>
<polyline fill="none" stroke="black" points="1076,-183 1080.98,-182.56 "/>
<polyline fill="none" stroke="black" points="1080.98,-182.56 1085.96,-182.12 "/>
<polyline fill="none" stroke="black" points="1184,-92 1179.05,-92.68 "/>
<polygon fill="black" stroke="black" points="1177.37,-87.87 1178.74,-97.77 1176.76,-98.04 1175.39,-88.14 1177.37,-87.87"/>
<polyline fill="none" stroke="black" points="1179.05,-92.68 1174.09,-93.36 "/>
<polygon fill="black" stroke="black" points="1172.42,-88.55 1173.78,-98.45 1171.8,-98.73 1170.44,-88.82 1172.42,-88.55"/>
<polyline fill="none" stroke="black" points="1174.09,-93.36 1169.14,-94.05 "/>
</g>
</g>
</svg>
