<?xml version="1.0" encoding="UTF-8" standalone="no"?>
<!DOCTYPE svg PUBLIC "-//W3C//DTD SVG 1.1//EN"
 "http://www.w3.org/Graphics/SVG/1.1/DTD/svg11.dtd">
<!-- Generated by graphviz version 14.1.5 (20260411.2331)
 -->
<!-- Title: Entity Relationship Diagram created by erdantic Pages: 1 -->
<svg width="1410pt" height="444pt"
 viewBox="0.00 0.00 1410.00 444.00" xmlns="http://www.w3.org/2000/svg" xmlns:xlink="http://www.w3.org/1999/xlink">
<g id="graph0" class="graph" transform="scale(1 1) rotate(0) translate(4 439.75)">
<title>Entity Relationship Diagram created by erdantic</title>
<polygon fill="white" stroke="none" points="-4,4 -4,-439.75 1405.75,-439.75 1405.75,4 -4,4"/>
<text xml:space="preserve" text-anchor="middle" x="700.88" y="-5.95" font-family="Times New Roman,Times,Liberation Serif,serif" font-size="9.00" fill="#a8a8a8">Created by erdantic v1.2.1 &lt;https://github.com/drivendataorg/erdantic&gt;</text>
<!-- aind_behavior_telekinesis.task_logic.ActionLookUpTableFactory -->
<g id="node1" class="node">
<title>aind_behavior_telekinesis.task_logic.ActionLookUpTableFactory</title>
<g id="a_node1"><a xlink:title="aind_behavior_telekinesis.task_logic.ActionLookUpTableFactory&#10;&#10;Factory for loading and configuring a look&#45;up table image used to map action inputs to output values&#10;">
<polygon fill="none" stroke="black" points="1221.75,-279.75 1221.75,-302.25 1401.75,-302.25 1401.75,-279.75 1221.75,-279.75"/>
<text xml:space="preserve" text-anchor="start" x="1224.75" y="-286.95" font-family="Times New Roman,Times,Liberation Serif,serif" font-weight="bold" font-size="14.00">ActionLookUpTableFactory</text>
<polygon fill="none" stroke="black" points="1221.75,-257.25 1221.75,-279.75 1336.12,-279.75 1336.12,-257.25 1221.75,-257.25"/>
<text xml:space="preserve" text-anchor="start" x="1266.56" y="-264" font-family="Times New Roman,Times,Liberation Serif,serif" font-size="14.00">path</text>
<polygon fill="none" stroke="black" points="1336.12,-257.25 1336.12,-279.75 1401.75,-279.75 1401.75,-257.25 1336.12,-257.25"/>
<text xml:space="preserve" text-anchor="start" x="1362.19" y="-264" font-family="Times New Roman,Times,Liberation Serif,serif" font-size="14.00">str</text>
<polygon fill="none" stroke="black" points="1221.75,-234.75 1221.75,-257.25 1336.12,-257.25 1336.12,-234.75 1221.75,-234.75"/>
<text xml:space="preserve" text-anchor="start" x="1263.19" y="-241.5" font-family="Times New Roman,Times,Liberation Serif,serif" font-size="14.00">offset</text>
<polygon fill="none" stroke="black" points="1336.12,-234.75 1336.12,-257.25 1401.75,-257.25 1401.75,-234.75 1336.12,-234.75"/>
<text xml:space="preserve" text-anchor="start" x="1356.19" y="-241.5" font-family="Times New Roman,Times,Liberation Serif,serif" font-size="14.00">float</text>
<polygon fill="none" stroke="black" points="1221.75,-212.25 1221.75,-234.75 1336.12,-234.75 1336.12,-212.25 1221.75,-212.25"/>
<text xml:space="preserve" text-anchor="start" x="1265.44" y="-219" font-family="Times New Roman,Times,Liberation Serif,serif" font-size="14.00">scale</text>
<polygon fill="none" stroke="black" points="1336.12,-212.25 1336.12,-234.75 1401.75,-234.75 1401.75,-212.25 1336.12,-212.25"/>
<text xml:space="preserve" text-anchor="start" x="1356.19" y="-219" font-family="Times New Roman,Times,Liberation Serif,serif" font-size="14.00">float</text>
<polygon fill="none" stroke="black" points="1221.75,-189.75 1221.75,-212.25 1336.12,-212.25 1336.12,-189.75 1221.75,-189.75"/>
<text xml:space="preserve" text-anchor="start" x="1242.94" y="-196.5" font-family="Times New Roman,Times,Liberation Serif,serif" font-size="14.00">action0_min</text>
<polygon fill="none" stroke="black" points="1336.12,-189.75 1336.12,-212.25 1401.75,-212.25 1401.75,-189.75 1336.12,-189.75"/>
<text xml:space="preserve" text-anchor="start" x="1356.19" y="-196.5" font-family="Times New Roman,Times,Liberation Serif,serif" font-size="14.00">float</text>
<polygon fill="none" stroke="black" points="1221.75,-167.25 1221.75,-189.75 1336.12,-189.75 1336.12,-167.25 1221.75,-167.25"/>
<text xml:space="preserve" text-anchor="start" x="1241.81" y="-174" font-family="Times New Roman,Times,Liberation Serif,serif" font-size="14.00">action0_max</text>
<polygon fill="none" stroke="black" points="1336.12,-167.25 1336.12,-189.75 1401.75,-189.75 1401.75,-167.25 1336.12,-167.25"/>
<text xml:space="preserve" text-anchor="start" x="1356.19" y="-174" font-family="Times New Roman,Times,Liberation Serif,serif" font-size="14.00">float</text>
<polygon fill="none" stroke="black" points="1221.75,-144.75 1221.75,-167.25 1336.12,-167.25 1336.12,-144.75 1221.75,-144.75"/>
<text xml:space="preserve" text-anchor="start" x="1242.94" y="-151.5" font-family="Times New Roman,Times,Liberation Serif,serif" font-size="14.00">action1_min</text>
<polygon fill="none" stroke="black" points="1336.12,-144.75 1336.12,-167.25 1401.75,-167.25 1401.75,-144.75 1336.12,-144.75"/>
<text xml:space="preserve" text-anchor="start" x="1356.19" y="-151.5" font-family="Times New Roman,Times,Liberation Serif,serif" font-size="14.00">float</text>
<polygon fill="none" stroke="black" points="1221.75,-122.25 1221.75,-144.75 1336.12,-144.75 1336.12,-122.25 1221.75,-122.25"/>
<text xml:space="preserve" text-anchor="start" x="1241.81" y="-129" font-family="Times New Roman,Times,Liberation Serif,serif" font-size="14.00">action1_max</text>
<polygon fill="none" stroke="black" points="1336.12,-122.25 1336.12,-144.75 1401.75,-144.75 1401.75,-122.25 1336.12,-122.25"/>
<text xml:space="preserve" text-anchor="start" x="1356.19" y="-129" font-family="Times New Roman,Times,Liberation Serif,serif" font-size="14.00">float</text>
</a>
</g>
</g>
<!-- aind_behavior_telekinesis.task_logic.AindBehaviorTelekinesisTaskLogic -->
<g id="node2" class="node">
<title>aind_behavior_telekinesis.task_logic.AindBehaviorTelekinesisTaskLogic</title>
<g id="a_node2"><a xlink:title="aind_behavior_telekinesis.task_logic.AindBehaviorTelekinesisTaskLogic&#10;&#10;Task logic definition for the Telekinesis behavior task&#10;">
<polygon fill="none" stroke="black" points="0,-413.25 0,-435.75 283.5,-435.75 283.5,-413.25 0,-413.25"/>
<text xml:space="preserve" text-anchor="start" x="34.12" y="-420.45" font-family="Times New Roman,Times,Liberation Serif,serif" font-weight="bold" font-size="14.00">AindBehaviorTelekinesisTaskLogic</text>
<polygon fill="none" stroke="black" points="0,-390.75 0,-413.25 96.75,-413.25 96.75,-390.75 0,-390.75"/>
<text xml:space="preserve" text-anchor="start" x="33" y="-397.5" font-family="Times New Roman,Times,Liberation Serif,serif" font-size="14.00">name</text>
<polygon fill="none" stroke="black" points="96.75,-390.75 96.75,-413.25 283.5,-413.25 283.5,-390.75 96.75,-390.75"/>
<text xml:space="preserve" text-anchor="start" x="118.88" y="-397.5" font-family="Times New Roman,Times,Liberation Serif,serif" font-size="14.00">Literal[&#39;AindTelekinesis&#39;]</text>
<polygon fill="none" stroke="black" points="0,-368.25 0,-390.75 96.75,-390.75 96.75,-368.25 0,-368.25"/>
<text xml:space="preserve" text-anchor="start" x="16.88" y="-375" font-family="Times New Roman,Times,Liberation Serif,serif" font-size="14.00">description</text>
<polygon fill="none" stroke="black" points="96.75,-368.25 96.75,-390.75 283.5,-390.75 283.5,-368.25 96.75,-368.25"/>
<text xml:space="preserve" text-anchor="start" x="183.38" y="-375" font-family="Times New Roman,Times,Liberation Serif,serif" font-size="14.00">str</text>
<polygon fill="none" stroke="black" points="0,-345.75 0,-368.25 96.75,-368.25 96.75,-345.75 0,-345.75"/>
<text xml:space="preserve" text-anchor="start" x="3" y="-352.5" font-family="Times New Roman,Times,Liberation Serif,serif" font-size="14.00">task_parameters</text>
<polygon fill="none" stroke="black" points="96.75,-345.75 96.75,-368.25 283.5,-368.25 283.5,-345.75 96.75,-345.75"/>
<text xml:space="preserve" text-anchor="start" x="99.75" y="-352.5" font-family="Times New Roman,Times,Liberation Serif,serif" font-size="14.00">AindTelekinesisTaskParameters</text>
<polygon fill="none" stroke="black" points="0,-323.25 0,-345.75 96.75,-345.75 96.75,-323.25 0,-323.25"/>
<text xml:space="preserve" text-anchor="start" x="27.38" y="-330" font-family="Times New Roman,Times,Liberation Serif,serif" font-size="14.00">version</text>
<polygon fill="none" stroke="black" points="96.75,-323.25 96.75,-345.75 283.5,-345.75 283.5,-323.25 96.75,-323.25"/>
<text xml:space="preserve" text-anchor="start" x="150" y="-330" font-family="Times New Roman,Times,Liberation Serif,serif" font-size="14.00">Literal[&#39;0.6.0&#39;]</text>
<polygon fill="none" stroke="black" points="0,-300.75 0,-323.25 96.75,-323.25 96.75,-300.75 0,-300.75"/>
<text xml:space="preserve" text-anchor="start" x="15" y="-307.5" font-family="Times New Roman,Times,Liberation Serif,serif" font-size="14.00">stage_name</text>
<polygon fill="none" stroke="black" points="96.75,-300.75 96.75,-323.25 283.5,-323.25 283.5,-300.75 96.75,-300.75"/>
<text xml:space="preserve" text-anchor="start" x="153.75" y="-307.5" font-family="Times New Roman,Times,Liberation Serif,serif" font-size="14.00">Optional[str]</text>
</a>
</g>
</g>
<!-- aind_behavior_telekinesis.task_logic.AindTelekinesisTaskParameters -->
<g id="node3" class="node">
<title>aind_behavior_telekinesis.task_logic.AindTelekinesisTaskParameters</title>
<g id="a_node3"><a xlink:title="aind_behavior_telekinesis.task_logic.AindTelekinesisTaskParameters&#10;&#10;Task parameters for the Telekinesis task&#10;">
<polygon fill="none" stroke="black" points="391.5,-346 391.5,-368.5 718.5,-368.5 718.5,-346 391.5,-346"/>
<text xml:space="preserve" text-anchor="start" x="457.88" y="-353.2" font-family="Times New Roman,Times,Liberation Serif,serif" font-weight="bold" font-size="14.00">AindTelekinesisTaskParameters</text>
<polygon fill="none" stroke="black" points="391.5,-323.5 391.5,-346 611.25,-346 611.25,-323.5 391.5,-323.5"/>
<text xml:space="preserve" text-anchor="start" x="475.5" y="-330.25" font-family="Times New Roman,Times,Liberation Serif,serif" font-size="14.00">rng_seed</text>
<polygon fill="none" stroke="black" points="611.25,-323.5 611.25,-346 718.5,-346 718.5,-323.5 611.25,-323.5"/>
<text xml:space="preserve" text-anchor="start" x="622.5" y="-330.25" font-family="Times New Roman,Times,Liberation Serif,serif" font-size="14.00">Optional[float]</text>
<polygon fill="none" stroke="black" points="391.5,-301 391.5,-323.5 611.25,-323.5 611.25,-301 391.5,-301"/>
<text xml:space="preserve" text-anchor="start" x="394.5" y="-307.75" font-family="Times New Roman,Times,Liberation Serif,serif" font-size="14.00">aind_behavior_services_pkg_version</text>
<polygon fill="none" stroke="black" points="611.25,-301 611.25,-323.5 718.5,-323.5 718.5,-301 611.25,-301"/>
<text xml:space="preserve" text-anchor="start" x="621" y="-307.75" font-family="Times New Roman,Times,Liberation Serif,serif" font-size="14.00">Literal[&#39;0.13.7&#39;]</text>
<polygon fill="none" stroke="black" points="391.5,-278.5 391.5,-301 611.25,-301 611.25,-278.5 391.5,-278.5"/>
<text xml:space="preserve" text-anchor="start" x="465" y="-285.25" font-family="Times New Roman,Times,Liberation Serif,serif" font-size="14.00">environment</text>
<polygon fill="none" stroke="black" points="611.25,-278.5 611.25,-301 718.5,-301 718.5,-278.5 611.25,-278.5"/>
<text xml:space="preserve" text-anchor="start" x="627" y="-285.25" font-family="Times New Roman,Times,Liberation Serif,serif" font-size="14.00">Environment</text>
<polygon fill="none" stroke="black" points="391.5,-256 391.5,-278.5 611.25,-278.5 611.25,-256 391.5,-256"/>
<text xml:space="preserve" text-anchor="start" x="450.38" y="-262.75" font-family="Times New Roman,Times,Liberation Serif,serif" font-size="14.00">operation_control</text>
<polygon fill="none" stroke="black" points="611.25,-256 611.25,-278.5 718.5,-278.5 718.5,-256 611.25,-256"/>
<text xml:space="preserve" text-anchor="start" x="614.25" y="-262.75" font-family="Times New Roman,Times,Liberation Serif,serif" font-size="14.00">OperationControl</text>
</a>
</g>
</g>
<!-- aind_behavior_telekinesis.task_logic.AindBehaviorTelekinesisTaskLogic&#45;&gt;aind_behavior_telekinesis.task_logic.AindTelekinesisTaskParameters -->
<g id="edge1" class="edge">
<title>aind_behavior_telekinesis.task_logic.AindBehaviorTelekinesisTaskLogic:e&#45;&gt;aind_behavior_telekinesis.task_logic.AindTelekinesisTaskParameters:w</title>
<path fill="none" stroke="black" d="M293.37,-357C328.57,-357.03 343.3,-357.2 376.58,-357.24"/>
<polyline fill="none" stroke="black" points="283.5,-357 288.5,-357"/>
<polyline fill="none" stroke="black" points="288.5,-357 293.5,-357"/>
<polyline fill="none" stroke="black" points="391.5,-357.25 386.5,-357.25"/>
<polygon fill="black" stroke="black" points="385.5,-352.25 385.5,-362.25 383.5,-362.25 383.5,-352.25 385.5,-352.25"/>
<polyline fill="none" stroke="black" points="386.5,-357.25 381.5,-357.24"/>
<polygon fill="black" stroke="black" points="380.5,-352.24 380.5,-362.24 378.5,-362.24 378.5,-352.24 380.5,-352.24"/>
<polyline fill="none" stroke="black" points="381.5,-357.24 376.5,-357.24"/>
</g>
<!-- aind_behavior_telekinesis.task_logic.Environment -->
<g id="node4" class="node">
<title>aind_behavior_telekinesis.task_logic.Environment</title>
<g id="a_node4"><a xlink:title="aind_behavior_telekinesis.task_logic.Environment&#10;&#10;Defines the structure of the behavioral environment as a sequence of blocks&#10;">
<polygon fill="none" stroke="black" points="866.25,-330.75 866.25,-353.25 1074,-353.25 1074,-330.75 866.25,-330.75"/>
<text xml:space="preserve" text-anchor="start" x="929.25" y="-337.95" font-family="Times New Roman,Times,Liberation Serif,serif" font-weight="bold" font-size="14.00">Environment</text>
<polygon fill="none" stroke="black" points="866.25,-308.25 866.25,-330.75 958.5,-330.75 958.5,-308.25 866.25,-308.25"/>
<text xml:space="preserve" text-anchor="start" x="869.25" y="-315" font-family="Times New Roman,Times,Liberation Serif,serif" font-size="14.00">block_statistics</text>
<polygon fill="none" stroke="black" points="958.5,-308.25 958.5,-330.75 1074,-330.75 1074,-308.25 958.5,-308.25"/>
<text xml:space="preserve" text-anchor="start" x="961.5" y="-315" font-family="Times New Roman,Times,Liberation Serif,serif" font-size="14.00">list[BlockStatistics]</text>
<polygon fill="none" stroke="black" points="866.25,-285.75 866.25,-308.25 958.5,-308.25 958.5,-285.75 866.25,-285.75"/>
<text xml:space="preserve" text-anchor="start" x="892.88" y="-292.5" font-family="Times New Roman,Times,Liberation Serif,serif" font-size="14.00">shuffle</text>
<polygon fill="none" stroke="black" points="958.5,-285.75 958.5,-308.25 1074,-308.25 1074,-285.75 958.5,-285.75"/>
<text xml:space="preserve" text-anchor="start" x="1003.12" y="-292.5" font-family="Times New Roman,Times,Liberation Serif,serif" font-size="14.00">bool</text>
<polygon fill="none" stroke="black" points="866.25,-263.25 866.25,-285.75 958.5,-285.75 958.5,-263.25 866.25,-263.25"/>
<text xml:space="preserve" text-anchor="start" x="875.62" y="-270" font-family="Times New Roman,Times,Liberation Serif,serif" font-size="14.00">repeat_count</text>
<polygon fill="none" stroke="black" points="958.5,-263.25 958.5,-285.75 1074,-285.75 1074,-263.25 958.5,-263.25"/>
<text xml:space="preserve" text-anchor="start" x="979.12" y="-270" font-family="Times New Roman,Times,Liberation Serif,serif" font-size="14.00">Optional[int]</text>
</a>
</g>
</g>
<!-- aind_behavior_telekinesis.task_logic.AindTelekinesisTaskParameters&#45;&gt;aind_behavior_telekinesis.task_logic.Environment -->
<g id="edge2" class="edge">
<title>aind_behavior_telekinesis.task_logic.AindTelekinesisTaskParameters:e&#45;&gt;aind_behavior_telekinesis.task_logic.Environment:w</title>
<path fill="none" stroke="black" d="M728.22,-290.11C783.85,-294.36 797.36,-334.7 850.44,-341.14"/>
<polyline fill="none" stroke="black" points="718.5,-289.75 723.5,-289.94"/>
<polyline fill="none" stroke="black" points="723.5,-289.94 728.49,-290.12"/>
<polyline fill="none" stroke="black" points="865.25,-342 860.26,-341.71"/>
<polygon fill="black" stroke="black" points="859.55,-336.66 858.97,-346.64 856.97,-346.53 857.55,-336.54 859.55,-336.66"/>
<polyline fill="none" stroke="black" points="860.26,-341.71 855.27,-341.42"/>
<polygon fill="black" stroke="black" points="854.56,-336.37 853.98,-346.35 851.98,-346.24 852.56,-336.25 854.56,-336.37"/>
<polyline fill="none" stroke="black" points="855.27,-341.42 850.28,-341.13"/>
</g>
<!-- aind_behavior_telekinesis.task_logic.OperationControl -->
<g id="node5" class="node">
<title>aind_behavior_telekinesis.task_logic.OperationControl</title>
<g id="a_node5"><a xlink:title="aind_behavior_telekinesis.task_logic.OperationControl&#10;&#10;Top&#45;level operational settings including LUT registry and spout control&#10;">
<polygon fill="none" stroke="black" points="826.5,-204.5 826.5,-227 1113.75,-227 1113.75,-204.5 826.5,-204.5"/>
<text xml:space="preserve" text-anchor="start" x="914.62" y="-211.7" font-family="Times New Roman,Times,Liberation Serif,serif" font-weight="bold" font-size="14.00">OperationControl</text>
<polygon fill="none" stroke="black" points="826.5,-182 826.5,-204.5 894.75,-204.5 894.75,-182 826.5,-182"/>
<text xml:space="preserve" text-anchor="start" x="829.5" y="-188.75" font-family="Times New Roman,Times,Liberation Serif,serif" font-size="14.00">action_luts</text>
<polygon fill="none" stroke="black" points="894.75,-182 894.75,-204.5 1113.75,-204.5 1113.75,-182 894.75,-182"/>
<text xml:space="preserve" text-anchor="start" x="897.75" y="-188.75" font-family="Times New Roman,Times,Liberation Serif,serif" font-size="14.00">dict[str, ActionLookUpTableFactory]</text>
<polygon fill="none" stroke="black" points="826.5,-159.5 826.5,-182 894.75,-182 894.75,-159.5 826.5,-159.5"/>
<text xml:space="preserve" text-anchor="start" x="844.88" y="-166.25" font-family="Times New Roman,Times,Liberation Serif,serif" font-size="14.00">spout</text>
<polygon fill="none" stroke="black" points="894.75,-159.5 894.75,-182 1113.75,-182 1113.75,-159.5 894.75,-159.5"/>
<text xml:space="preserve" text-anchor="start" x="936.38" y="-166.25" font-family="Times New Roman,Times,Liberation Serif,serif" font-size="14.00">SpoutOperationControl</text>
</a>
</g>
</g>
<!-- aind_behavior_telekinesis.task_logic.AindTelekinesisTaskParameters&#45;&gt;aind_behavior_telekinesis.task_logic.OperationControl -->
<g id="edge3" class="edge">
<title>aind_behavior_telekinesis.task_logic.AindTelekinesisTaskParameters:e&#45;&gt;aind_behavior_telekinesis.task_logic.OperationControl:w</title>
<path fill="none" stroke="black" d="M728.44,-266.6C767.35,-261.29 775.35,-225.1 811.71,-217.25"/>
<polyline fill="none" stroke="black" points="718.5,-267.25 723.49,-266.92"/>
<polyline fill="none" stroke="black" points="723.49,-266.92 728.48,-266.6"/>
<polyline fill="none" stroke="black" points="826.5,-215.75 821.53,-216.26"/>
<polygon fill="black" stroke="black" points="820.03,-211.38 821.04,-221.33 819.05,-221.53 818.04,-211.58 820.03,-211.38"/>
<polyline fill="none" stroke="black" points="821.53,-216.26 816.55,-216.76"/>
<polygon fill="black" stroke="black" points="815.05,-211.89 816.06,-221.84 814.07,-222.04 813.06,-212.09 815.05,-211.89"/>
<polyline fill="none" stroke="black" points="816.55,-216.76 811.58,-217.27"/>
</g>
<!-- aind_behavior_telekinesis.task_logic.OperationControl&#45;&gt;aind_behavior_telekinesis.task_logic.ActionLookUpTableFactory -->
<g id="edge4" class="edge">
<title>aind_behavior_telekinesis.task_logic.OperationControl:e&#45;&gt;aind_behavior_telekinesis.task_logic.ActionLookUpTableFactory:w</title>
<path fill="none" stroke="black" d="M1123.63,-194.1C1171.55,-202.77 1162.88,-275.62 1206.73,-288.92"/>
<polyline fill="none" stroke="black" points="1113.75,-193.25 1118.73,-193.68"/>
<polyline fill="none" stroke="black" points="1118.73,-193.68 1123.71,-194.1"/>
<polygon fill="black" stroke="black" points="1211.51,-289.58 1220.8,-295.41 1216.8,-290.31 1221.09,-290.91 1221.09,-290.91 1221.09,-290.91 1216.8,-290.31 1222.04,-286.5 1211.51,-289.58"/>
<polyline fill="none" stroke="black" points="1210.31,-289.41 1205.35,-288.73"/>
</g>
<!-- aind_behavior_telekinesis.task_logic.SpoutOperationControl -->
<g id="node6" class="node">
<title>aind_behavior_telekinesis.task_logic.SpoutOperationControl</title>
<g id="a_node6"><a xlink:title="aind_behavior_telekinesis.task_logic.SpoutOperationControl&#10;&#10;Control settings for the reward spout&#10;">
<polygon fill="none" stroke="black" points="1223.25,-63.5 1223.25,-86 1400.25,-86 1400.25,-63.5 1223.25,-63.5"/>
<text xml:space="preserve" text-anchor="start" x="1237.88" y="-70.7" font-family="Times New Roman,Times,Liberation Serif,serif" font-weight="bold" font-size="14.00">SpoutOperationControl</text>
<polygon fill="none" stroke="black" points="1223.25,-41 1223.25,-63.5 1368,-63.5 1368,-41 1223.25,-41"/>
<text xml:space="preserve" text-anchor="start" x="1226.25" y="-47.75" font-family="Times New Roman,Times,Liberation Serif,serif" font-size="14.00">default_retraction_offset</text>
<polygon fill="none" stroke="black" points="1368,-41 1368,-63.5 1400.25,-63.5 1400.25,-41 1368,-41"/>
<text xml:space="preserve" text-anchor="start" x="1371.38" y="-47.75" font-family="Times New Roman,Times,Liberation Serif,serif" font-size="14.00">float</text>
<polygon fill="none" stroke="black" points="1223.25,-18.5 1223.25,-41 1368,-41 1368,-18.5 1223.25,-18.5"/>
<text xml:space="preserve" text-anchor="start" x="1273.5" y="-25.25" font-family="Times New Roman,Times,Liberation Serif,serif" font-size="14.00">enabled</text>
<polygon fill="none" stroke="black" points="1368,-18.5 1368,-41 1400.25,-41 1400.25,-18.5 1368,-18.5"/>
<text xml:space="preserve" text-anchor="start" x="1371" y="-25.25" font-family="Times New Roman,Times,Liberation Serif,serif" font-size="14.00">bool</text>
</a>
</g>
</g>
<!-- aind_behavior_telekinesis.task_logic.OperationControl&#45;&gt;aind_behavior_telekinesis.task_logic.SpoutOperationControl -->
<g id="edge5" class="edge">
<title>aind_behavior_telekinesis.task_logic.OperationControl:e&#45;&gt;aind_behavior_telekinesis.task_logic.SpoutOperationControl:w</title>
<path fill="none" stroke="black" d="M1123.58,-169.92C1171.45,-161.38 1163.5,-89.55 1207.57,-76.71"/>
<polyline fill="none" stroke="black" points="1113.75,-170.75 1118.73,-170.33"/>
<polyline fill="none" stroke="black" points="1118.73,-170.33 1123.71,-169.91"/>
<polyline fill="none" stroke="black" points="1222.25,-74.75 1217.29,-75.41"/>
<polygon fill="black" stroke="black" points="1215.64,-70.59 1216.96,-80.5 1214.98,-80.76 1213.66,-70.85 1215.64,-70.59"/>
<polyline fill="none" stroke="black" points="1217.29,-75.41 1212.34,-76.07"/>
<polygon fill="black" stroke="black" points="1210.68,-71.25 1212.01,-81.16 1210.03,-81.43 1208.7,-71.51 1210.68,-71.25"/>
<polyline fill="none" stroke="black" points="1212.34,-76.07 1207.38,-76.74"/>
</g>
</g>
</svg>
