<?xml version="1.0" encoding="UTF-8" standalone="no"?>
<!DOCTYPE svg PUBLIC "-//W3C//DTD SVG 1.1//EN"
 "http://www.w3.org/Graphics/SVG/1.1/DTD/svg11.dtd">
<!-- Generated by graphviz version 2.43.0 (0)
 -->
<!-- Title: Entity Relationship Diagram created by erdantic Pages: 1 -->
<svg width="1363pt" height="423pt"
 viewBox="0.00 0.00 1363.00 422.50" xmlns="http://www.w3.org/2000/svg" xmlns:xlink="http://www.w3.org/1999/xlink">
<g id="graph0" class="graph" transform="scale(1 1) rotate(0) translate(4 418.5)">
<title>Entity Relationship Diagram created by erdantic</title>
<polygon fill="white" stroke="transparent" points="-4,4 -4,-418.5 1359,-418.5 1359,4 -4,4"/>
<text text-anchor="middle" x="677.5" y="-6.8" font-family="Times New Roman,Times,Liberation Serif,serif" font-size="9.00" fill="#a8a8a8">Created by erdantic v1.2.1 &lt;https://github.com/drivendataorg/erdantic&gt;</text>
<!-- aind_behavior_telekinesis.task_logic.ActionLookUpTableFactory -->
<g id="node1" class="node">
<title>aind_behavior_telekinesis.task_logic.ActionLookUpTableFactory</title>
<g id="a_node1"><a xlink:title="aind_behavior_telekinesis.task_logic.ActionLookUpTableFactory&#10;&#10;Factory for loading and configuring a look&#45;up table image used to map action inputs to output values&#10;">
<polygon fill="none" stroke="black" points="1185.5,-264.5 1185.5,-285.5 1354.5,-285.5 1354.5,-264.5 1185.5,-264.5"/>
<text text-anchor="start" x="1188.5" y="-272.3" font-family="Times New Roman,Times,Liberation Serif,serif" font-weight="bold" font-size="14.00">ActionLookUpTableFactory</text>
<polygon fill="none" stroke="black" points="1185.5,-243.5 1185.5,-264.5 1292.5,-264.5 1292.5,-243.5 1185.5,-243.5"/>
<text text-anchor="start" x="1227" y="-250.3" font-family="Times New Roman,Times,Liberation Serif,serif" font-size="14.00">path</text>
<polygon fill="none" stroke="black" points="1292.5,-243.5 1292.5,-264.5 1354.5,-264.5 1354.5,-243.5 1292.5,-243.5"/>
<text text-anchor="start" x="1316.5" y="-250.3" font-family="Times New Roman,Times,Liberation Serif,serif" font-size="14.00">str</text>
<polygon fill="none" stroke="black" points="1185.5,-222.5 1185.5,-243.5 1292.5,-243.5 1292.5,-222.5 1185.5,-222.5"/>
<text text-anchor="start" x="1223.5" y="-229.3" font-family="Times New Roman,Times,Liberation Serif,serif" font-size="14.00">offset</text>
<polygon fill="none" stroke="black" points="1292.5,-222.5 1292.5,-243.5 1354.5,-243.5 1354.5,-222.5 1292.5,-222.5"/>
<text text-anchor="start" x="1311" y="-229.3" font-family="Times New Roman,Times,Liberation Serif,serif" font-size="14.00">float</text>
<polygon fill="none" stroke="black" points="1185.5,-201.5 1185.5,-222.5 1292.5,-222.5 1292.5,-201.5 1185.5,-201.5"/>
<text text-anchor="start" x="1225" y="-208.3" font-family="Times New Roman,Times,Liberation Serif,serif" font-size="14.00">scale</text>
<polygon fill="none" stroke="black" points="1292.5,-201.5 1292.5,-222.5 1354.5,-222.5 1354.5,-201.5 1292.5,-201.5"/>
<text text-anchor="start" x="1311" y="-208.3" font-family="Times New Roman,Times,Liberation Serif,serif" font-size="14.00">float</text>
<polygon fill="none" stroke="black" points="1185.5,-180.5 1185.5,-201.5 1292.5,-201.5 1292.5,-180.5 1185.5,-180.5"/>
<text text-anchor="start" x="1204.5" y="-187.3" font-family="Times New Roman,Times,Liberation Serif,serif" font-size="14.00">action0_min</text>
<polygon fill="none" stroke="black" points="1292.5,-180.5 1292.5,-201.5 1354.5,-201.5 1354.5,-180.5 1292.5,-180.5"/>
<text text-anchor="start" x="1311" y="-187.3" font-family="Times New Roman,Times,Liberation Serif,serif" font-size="14.00">float</text>
<polygon fill="none" stroke="black" points="1185.5,-159.5 1185.5,-180.5 1292.5,-180.5 1292.5,-159.5 1185.5,-159.5"/>
<text text-anchor="start" x="1203.5" y="-166.3" font-family="Times New Roman,Times,Liberation Serif,serif" font-size="14.00">action0_max</text>
<polygon fill="none" stroke="black" points="1292.5,-159.5 1292.5,-180.5 1354.5,-180.5 1354.5,-159.5 1292.5,-159.5"/>
<text text-anchor="start" x="1311" y="-166.3" font-family="Times New Roman,Times,Liberation Serif,serif" font-size="14.00">float</text>
<polygon fill="none" stroke="black" points="1185.5,-138.5 1185.5,-159.5 1292.5,-159.5 1292.5,-138.5 1185.5,-138.5"/>
<text text-anchor="start" x="1204.5" y="-145.3" font-family="Times New Roman,Times,Liberation Serif,serif" font-size="14.00">action1_min</text>
<polygon fill="none" stroke="black" points="1292.5,-138.5 1292.5,-159.5 1354.5,-159.5 1354.5,-138.5 1292.5,-138.5"/>
<text text-anchor="start" x="1311" y="-145.3" font-family="Times New Roman,Times,Liberation Serif,serif" font-size="14.00">float</text>
<polygon fill="none" stroke="black" points="1185.5,-117.5 1185.5,-138.5 1292.5,-138.5 1292.5,-117.5 1185.5,-117.5"/>
<text text-anchor="start" x="1203.5" y="-124.3" font-family="Times New Roman,Times,Liberation Serif,serif" font-size="14.00">action1_max</text>
<polygon fill="none" stroke="black" points="1292.5,-117.5 1292.5,-138.5 1354.5,-138.5 1354.5,-117.5 1292.5,-117.5"/>
<text text-anchor="start" x="1311" y="-124.3" font-family="Times New Roman,Times,Liberation Serif,serif" font-size="14.00">float</text>
</a>
</g>
</g>
<!-- aind_behavior_telekinesis.task_logic.AindBehaviorTelekinesisTaskLogic -->
<g id="node2" class="node">
<title>aind_behavior_telekinesis.task_logic.AindBehaviorTelekinesisTaskLogic</title>
<g id="a_node2"><a xlink:title="aind_behavior_telekinesis.task_logic.AindBehaviorTelekinesisTaskLogic&#10;&#10;Task logic definition for the Telekinesis behavior task&#10;">
<polygon fill="none" stroke="black" points="0,-393.5 0,-414.5 276,-414.5 276,-393.5 0,-393.5"/>
<text text-anchor="start" x="35.5" y="-401.3" font-family="Times New Roman,Times,Liberation Serif,serif" font-weight="bold" font-size="14.00">AindBehaviorTelekinesisTaskLogic</text>
<polygon fill="none" stroke="black" points="0,-372.5 0,-393.5 95,-393.5 95,-372.5 0,-372.5"/>
<text text-anchor="start" x="32" y="-379.3" font-family="Times New Roman,Times,Liberation Serif,serif" font-size="14.00">name</text>
<polygon fill="none" stroke="black" points="95,-372.5 95,-393.5 276,-393.5 276,-372.5 95,-372.5"/>
<text text-anchor="start" x="116.5" y="-379.3" font-family="Times New Roman,Times,Liberation Serif,serif" font-size="14.00">Literal[&#39;AindTelekinesis&#39;]</text>
<polygon fill="none" stroke="black" points="0,-351.5 0,-372.5 95,-372.5 95,-351.5 0,-351.5"/>
<text text-anchor="start" x="17" y="-358.3" font-family="Times New Roman,Times,Liberation Serif,serif" font-size="14.00">description</text>
<polygon fill="none" stroke="black" points="95,-351.5 95,-372.5 276,-372.5 276,-351.5 95,-351.5"/>
<text text-anchor="start" x="178.5" y="-358.3" font-family="Times New Roman,Times,Liberation Serif,serif" font-size="14.00">str</text>
<polygon fill="none" stroke="black" points="0,-330.5 0,-351.5 95,-351.5 95,-330.5 0,-330.5"/>
<text text-anchor="start" x="3" y="-337.3" font-family="Times New Roman,Times,Liberation Serif,serif" font-size="14.00">task_parameters</text>
<polygon fill="none" stroke="black" points="95,-330.5 95,-351.5 276,-351.5 276,-330.5 95,-330.5"/>
<text text-anchor="start" x="98" y="-337.3" font-family="Times New Roman,Times,Liberation Serif,serif" font-size="14.00">AindTelekinesisTaskParameters</text>
<polygon fill="none" stroke="black" points="0,-309.5 0,-330.5 95,-330.5 95,-309.5 0,-309.5"/>
<text text-anchor="start" x="27.5" y="-316.3" font-family="Times New Roman,Times,Liberation Serif,serif" font-size="14.00">version</text>
<polygon fill="none" stroke="black" points="95,-309.5 95,-330.5 276,-330.5 276,-309.5 95,-309.5"/>
<text text-anchor="start" x="135.5" y="-316.3" font-family="Times New Roman,Times,Liberation Serif,serif" font-size="14.00">Literal[&#39;0.5.0&#45;rc1&#39;]</text>
<polygon fill="none" stroke="black" points="0,-288.5 0,-309.5 95,-309.5 95,-288.5 0,-288.5"/>
<text text-anchor="start" x="15" y="-295.3" font-family="Times New Roman,Times,Liberation Serif,serif" font-size="14.00">stage_name</text>
<polygon fill="none" stroke="black" points="95,-288.5 95,-309.5 276,-309.5 276,-288.5 95,-288.5"/>
<text text-anchor="start" x="150.5" y="-295.3" font-family="Times New Roman,Times,Liberation Serif,serif" font-size="14.00">Optional[str]</text>
</a>
</g>
</g>
<!-- aind_behavior_telekinesis.task_logic.AindTelekinesisTaskParameters -->
<g id="node3" class="node">
<title>aind_behavior_telekinesis.task_logic.AindTelekinesisTaskParameters</title>
<g id="a_node3"><a xlink:title="aind_behavior_telekinesis.task_logic.AindTelekinesisTaskParameters&#10;&#10;Task parameters for the Telekinesis task&#10;">
<polygon fill="none" stroke="black" points="384,-329.5 384,-350.5 694,-350.5 694,-329.5 384,-329.5"/>
<text text-anchor="start" x="445.5" y="-337.3" font-family="Times New Roman,Times,Liberation Serif,serif" font-weight="bold" font-size="14.00">AindTelekinesisTaskParameters</text>
<polygon fill="none" stroke="black" points="384,-308.5 384,-329.5 592,-329.5 592,-308.5 384,-308.5"/>
<text text-anchor="start" x="463.5" y="-315.3" font-family="Times New Roman,Times,Liberation Serif,serif" font-size="14.00">rng_seed</text>
<polygon fill="none" stroke="black" points="592,-308.5 592,-329.5 694,-329.5 694,-308.5 592,-308.5"/>
<text text-anchor="start" x="602" y="-315.3" font-family="Times New Roman,Times,Liberation Serif,serif" font-size="14.00">Optional[float]</text>
<polygon fill="none" stroke="black" points="384,-287.5 384,-308.5 592,-308.5 592,-287.5 384,-287.5"/>
<text text-anchor="start" x="387" y="-294.3" font-family="Times New Roman,Times,Liberation Serif,serif" font-size="14.00">aind_behavior_services_pkg_version</text>
<polygon fill="none" stroke="black" points="592,-287.5 592,-308.5 694,-308.5 694,-287.5 592,-287.5"/>
<text text-anchor="start" x="600.5" y="-294.3" font-family="Times New Roman,Times,Liberation Serif,serif" font-size="14.00">Literal[&#39;0.13.6&#39;]</text>
<polygon fill="none" stroke="black" points="384,-266.5 384,-287.5 592,-287.5 592,-266.5 384,-266.5"/>
<text text-anchor="start" x="453" y="-273.3" font-family="Times New Roman,Times,Liberation Serif,serif" font-size="14.00">environment</text>
<polygon fill="none" stroke="black" points="592,-266.5 592,-287.5 694,-287.5 694,-266.5 592,-266.5"/>
<text text-anchor="start" x="607" y="-273.3" font-family="Times New Roman,Times,Liberation Serif,serif" font-size="14.00">Environment</text>
<polygon fill="none" stroke="black" points="384,-245.5 384,-266.5 592,-266.5 592,-245.5 384,-245.5"/>
<text text-anchor="start" x="439.5" y="-252.3" font-family="Times New Roman,Times,Liberation Serif,serif" font-size="14.00">operation_control</text>
<polygon fill="none" stroke="black" points="592,-245.5 592,-266.5 694,-266.5 694,-245.5 592,-245.5"/>
<text text-anchor="start" x="595" y="-252.3" font-family="Times New Roman,Times,Liberation Serif,serif" font-size="14.00">OperationControl</text>
</a>
</g>
</g>
<!-- aind_behavior_telekinesis.task_logic.AindBehaviorTelekinesisTaskLogic&#45;&gt;aind_behavior_telekinesis.task_logic.AindTelekinesisTaskParameters -->
<g id="edge1" class="edge">
<title>aind_behavior_telekinesis.task_logic.AindBehaviorTelekinesisTaskLogic:e&#45;&gt;aind_behavior_telekinesis.task_logic.AindTelekinesisTaskParameters:w</title>
<path fill="none" stroke="black" d="M286.12,-340.5C321,-340.5 335.76,-340.5 368.67,-340.5"/>
<polyline fill="none" stroke="black" points="276,-340.5 281,-340.5 "/>
<polyline fill="none" stroke="black" points="281,-340.5 286,-340.5 "/>
<polyline fill="none" stroke="black" points="384,-340.5 379,-340.5 "/>
<polygon fill="black" stroke="black" points="378,-335.5 378,-345.5 376,-345.5 376,-335.5 378,-335.5"/>
<polyline fill="none" stroke="black" points="379,-340.5 374,-340.5 "/>
<polygon fill="black" stroke="black" points="373,-335.5 373,-345.5 371,-345.5 371,-335.5 373,-335.5"/>
<polyline fill="none" stroke="black" points="374,-340.5 369,-340.5 "/>
</g>
<!-- aind_behavior_telekinesis.task_logic.Environment -->
<g id="node4" class="node">
<title>aind_behavior_telekinesis.task_logic.Environment</title>
<g id="a_node4"><a xlink:title="aind_behavior_telekinesis.task_logic.Environment&#10;&#10;Defines the structure of the behavioral environment as a sequence of blocks&#10;">
<polygon fill="none" stroke="black" points="838,-315.5 838,-336.5 1041,-336.5 1041,-315.5 838,-315.5"/>
<text text-anchor="start" x="900.5" y="-323.3" font-family="Times New Roman,Times,Liberation Serif,serif" font-weight="bold" font-size="14.00">Environment</text>
<polygon fill="none" stroke="black" points="838,-294.5 838,-315.5 928,-315.5 928,-294.5 838,-294.5"/>
<text text-anchor="start" x="841" y="-301.3" font-family="Times New Roman,Times,Liberation Serif,serif" font-size="14.00">block_statistics</text>
<polygon fill="none" stroke="black" points="928,-294.5 928,-315.5 1041,-315.5 1041,-294.5 928,-294.5"/>
<text text-anchor="start" x="931" y="-301.3" font-family="Times New Roman,Times,Liberation Serif,serif" font-size="14.00">list[BlockStatistics]</text>
<polygon fill="none" stroke="black" points="838,-273.5 838,-294.5 928,-294.5 928,-273.5 838,-273.5"/>
<text text-anchor="start" x="864" y="-280.3" font-family="Times New Roman,Times,Liberation Serif,serif" font-size="14.00">shuffle</text>
<polygon fill="none" stroke="black" points="928,-273.5 928,-294.5 1041,-294.5 1041,-273.5 928,-273.5"/>
<text text-anchor="start" x="972" y="-280.3" font-family="Times New Roman,Times,Liberation Serif,serif" font-size="14.00">bool</text>
<polygon fill="none" stroke="black" points="838,-252.5 838,-273.5 928,-273.5 928,-252.5 838,-252.5"/>
<text text-anchor="start" x="848" y="-259.3" font-family="Times New Roman,Times,Liberation Serif,serif" font-size="14.00">repeat_count</text>
<polygon fill="none" stroke="black" points="928,-252.5 928,-273.5 1041,-273.5 1041,-252.5 928,-252.5"/>
<text text-anchor="start" x="949" y="-259.3" font-family="Times New Roman,Times,Liberation Serif,serif" font-size="14.00">Optional[int]</text>
</a>
</g>
</g>
<!-- aind_behavior_telekinesis.task_logic.AindTelekinesisTaskParameters&#45;&gt;aind_behavior_telekinesis.task_logic.Environment -->
<g id="edge2" class="edge">
<title>aind_behavior_telekinesis.task_logic.AindTelekinesisTaskParameters:e&#45;&gt;aind_behavior_telekinesis.task_logic.Environment:w</title>
<path fill="none" stroke="black" d="M704.18,-276.9C757.48,-281.24 771.07,-319.25 821.99,-325.6"/>
<polyline fill="none" stroke="black" points="694,-276.5 699,-276.7 "/>
<polyline fill="none" stroke="black" points="699,-276.7 703.99,-276.9 "/>
<polyline fill="none" stroke="black" points="837,-326.5 832.01,-326.2 "/>
<polygon fill="black" stroke="black" points="831.31,-321.15 830.71,-331.13 828.72,-331.01 829.31,-321.03 831.31,-321.15"/>
<polyline fill="none" stroke="black" points="832.01,-326.2 827.02,-325.9 "/>
<polygon fill="black" stroke="black" points="826.32,-320.85 825.72,-330.83 823.72,-330.71 824.32,-320.73 826.32,-320.85"/>
<polyline fill="none" stroke="black" points="827.02,-325.9 822.03,-325.6 "/>
</g>
<!-- aind_behavior_telekinesis.task_logic.OperationControl -->
<g id="node5" class="node">
<title>aind_behavior_telekinesis.task_logic.OperationControl</title>
<g id="a_node5"><a xlink:title="aind_behavior_telekinesis.task_logic.OperationControl&#10;&#10;Top&#45;level operational settings including LUT registry and spout control&#10;">
<polygon fill="none" stroke="black" points="802,-194.5 802,-215.5 1076,-215.5 1076,-194.5 802,-194.5"/>
<text text-anchor="start" x="886" y="-202.3" font-family="Times New Roman,Times,Liberation Serif,serif" font-weight="bold" font-size="14.00">OperationControl</text>
<polygon fill="none" stroke="black" points="802,-173.5 802,-194.5 868,-194.5 868,-173.5 802,-173.5"/>
<text text-anchor="start" x="805" y="-180.3" font-family="Times New Roman,Times,Liberation Serif,serif" font-size="14.00">action_luts</text>
<polygon fill="none" stroke="black" points="868,-173.5 868,-194.5 1076,-194.5 1076,-173.5 868,-173.5"/>
<text text-anchor="start" x="871" y="-180.3" font-family="Times New Roman,Times,Liberation Serif,serif" font-size="14.00">dict[str, ActionLookUpTableFactory]</text>
<polygon fill="none" stroke="black" points="802,-152.5 802,-173.5 868,-173.5 868,-152.5 802,-152.5"/>
<text text-anchor="start" x="820" y="-159.3" font-family="Times New Roman,Times,Liberation Serif,serif" font-size="14.00">spout</text>
<polygon fill="none" stroke="black" points="868,-152.5 868,-173.5 1076,-173.5 1076,-152.5 868,-152.5"/>
<text text-anchor="start" x="908.5" y="-159.3" font-family="Times New Roman,Times,Liberation Serif,serif" font-size="14.00">SpoutOperationControl</text>
</a>
</g>
</g>
<!-- aind_behavior_telekinesis.task_logic.AindTelekinesisTaskParameters&#45;&gt;aind_behavior_telekinesis.task_logic.OperationControl -->
<g id="edge3" class="edge">
<title>aind_behavior_telekinesis.task_logic.AindTelekinesisTaskParameters:e&#45;&gt;aind_behavior_telekinesis.task_logic.OperationControl:w</title>
<path fill="none" stroke="black" d="M704.17,-254.83C742.53,-249.57 751.04,-214.85 786.83,-207.05"/>
<polyline fill="none" stroke="black" points="694,-255.5 698.99,-255.17 "/>
<polyline fill="none" stroke="black" points="698.99,-255.17 703.98,-254.84 "/>
<polyline fill="none" stroke="black" points="802,-205.5 797.03,-206.01 "/>
<polygon fill="black" stroke="black" points="795.52,-201.14 796.54,-211.09 794.55,-211.29 793.53,-201.34 795.52,-201.14"/>
<polyline fill="none" stroke="black" points="797.03,-206.01 792.05,-206.52 "/>
<polygon fill="black" stroke="black" points="790.55,-201.65 791.57,-211.59 789.58,-211.8 788.56,-201.85 790.55,-201.65"/>
<polyline fill="none" stroke="black" points="792.05,-206.52 787.08,-207.03 "/>
</g>
<!-- aind_behavior_telekinesis.task_logic.OperationControl&#45;&gt;aind_behavior_telekinesis.task_logic.ActionLookUpTableFactory -->
<g id="edge4" class="edge">
<title>aind_behavior_telekinesis.task_logic.OperationControl:e&#45;&gt;aind_behavior_telekinesis.task_logic.ActionLookUpTableFactory:w</title>
<path fill="none" stroke="black" d="M1085.99,-184.35C1132.63,-192.76 1126.66,-260.79 1169.52,-273.47"/>
<polyline fill="none" stroke="black" points="1076,-183.5 1080.98,-183.92 "/>
<polyline fill="none" stroke="black" points="1080.98,-183.92 1085.96,-184.35 "/>
<polygon fill="black" stroke="black" points="1174.59,-274.16 1183.9,-279.96 1179.55,-274.83 1184.5,-275.5 1184.5,-275.5 1184.5,-275.5 1179.55,-274.83 1185.1,-271.04 1174.59,-274.16 1174.59,-274.16"/>
<polyline fill="none" stroke="black" points="1174.59,-274.16 1169.64,-273.48 "/>
</g>
<!-- aind_behavior_telekinesis.task_logic.SpoutOperationControl -->
<g id="node6" class="node">
<title>aind_behavior_telekinesis.task_logic.SpoutOperationControl</title>
<g id="a_node6"><a xlink:title="aind_behavior_telekinesis.task_logic.SpoutOperationControl&#10;&#10;Control settings for the reward spout&#10;">
<polygon fill="none" stroke="black" points="1184.5,-59.5 1184.5,-80.5 1355.5,-80.5 1355.5,-59.5 1184.5,-59.5"/>
<text text-anchor="start" x="1200.5" y="-67.3" font-family="Times New Roman,Times,Liberation Serif,serif" font-weight="bold" font-size="14.00">SpoutOperationControl</text>
<polygon fill="none" stroke="black" points="1184.5,-38.5 1184.5,-59.5 1324.5,-59.5 1324.5,-38.5 1184.5,-38.5"/>
<text text-anchor="start" x="1187.5" y="-45.3" font-family="Times New Roman,Times,Liberation Serif,serif" font-size="14.00">default_retraction_offset</text>
<polygon fill="none" stroke="black" points="1324.5,-38.5 1324.5,-59.5 1355.5,-59.5 1355.5,-38.5 1324.5,-38.5"/>
<text text-anchor="start" x="1327.5" y="-45.3" font-family="Times New Roman,Times,Liberation Serif,serif" font-size="14.00">float</text>
<polygon fill="none" stroke="black" points="1184.5,-17.5 1184.5,-38.5 1324.5,-38.5 1324.5,-17.5 1184.5,-17.5"/>
<text text-anchor="start" x="1233" y="-24.3" font-family="Times New Roman,Times,Liberation Serif,serif" font-size="14.00">enabled</text>
<polygon fill="none" stroke="black" points="1324.5,-17.5 1324.5,-38.5 1355.5,-38.5 1355.5,-17.5 1324.5,-17.5"/>
<text text-anchor="start" x="1327.5" y="-24.3" font-family="Times New Roman,Times,Liberation Serif,serif" font-size="14.00">bool</text>
</a>
</g>
</g>
<!-- aind_behavior_telekinesis.task_logic.OperationControl&#45;&gt;aind_behavior_telekinesis.task_logic.SpoutOperationControl -->
<g id="edge5" class="edge">
<title>aind_behavior_telekinesis.task_logic.OperationControl:e&#45;&gt;aind_behavior_telekinesis.task_logic.SpoutOperationControl:w</title>
<path fill="none" stroke="black" d="M1086.28,-161.59C1132.44,-152.93 1126.44,-85.16 1169.09,-72.52"/>
<polyline fill="none" stroke="black" points="1076,-162.5 1080.98,-162.06 "/>
<polyline fill="none" stroke="black" points="1080.98,-162.06 1085.96,-161.62 "/>
<polyline fill="none" stroke="black" points="1184,-70.5 1179.05,-71.17 "/>
<polygon fill="black" stroke="black" points="1177.38,-66.35 1178.73,-76.26 1176.75,-76.53 1175.4,-66.62 1177.38,-66.35"/>
<polyline fill="none" stroke="black" points="1179.05,-71.17 1174.09,-71.84 "/>
<polygon fill="black" stroke="black" points="1172.43,-67.02 1173.77,-76.93 1171.79,-77.2 1170.45,-67.29 1172.43,-67.02"/>
<polyline fill="none" stroke="black" points="1174.09,-71.84 1169.14,-72.52 "/>
</g>
</g>
</svg>
